 <!--Created for free with Tennessine's Flag Designer at https://tennessine.co.uk/flags/--><!DOCTYPE svg PUBLIC "-//W3C//DTD SVG 1.1//EN" "http://www.w3.org/Graphics/SVG/1.1/DTD/svg11.dtd"><svg class="svg faded fadein" xmlns="http://www.w3.org/2000/svg" xmlns:xlink="http://www.w3.org/1999/xlink" width="1391.7441670745636" height="853" viewBox="0 0 100 61.29" id="svg" style="filter: grayscale(1);"><g><g><path d="M0,0L100,0L100,61.29L0,61.29Z" fill="rgba(0,0,0,0)"/></g></g><g transform="rotate(90,20.32758116722107,30.645005226135254)" class="svg-group-clickable"><g><g><g transform="translate(2.23793,20.129915987999997) scale(0.044606329782807,0.07128872594237289)"><path d="M1,1S1,0,5,0,26,9,41,28,67,73,60,73,32.5,61.5,19.5,51.5s-16-18-18-28S1,1,1,1Z" transform="translate(-0.46)" fill="rgb(255,255,255)"/><path d="M83,74s2-22,2-30-2-16-9-21-9-5-9-5,3,19,3,24,0,13,1,15S83,74,83,74Z" transform="translate(-0.46)" fill="rgb(255,255,255)"/><path d="M63,104s-9.9,2-14.07,2-27.35-2-33.68-10.87S6,73,6,73s26.8-1,41.29,9.51S63,104,63,104Z" transform="translate(-0.46)" fill="rgb(255,255,255)"/><path d="M127.35,139s-7.79-21.37-22.64-37.49S79.53,84.86,76,84.86a15.6,15.6,0,0,0-5.34.73s1.45,21,19.74,34A160.69,160.69,0,0,0,127.35,139Z" transform="translate(-0.46)" fill="rgb(255,255,255)"/><path d="M59.25,118.37s1.19-.91,7.75-.91,18,6.7,18,12.5-8.36,6-11.44,6S57.44,130,59.25,118.37Z" transform="translate(-0.46)" fill="rgb(255,255,255)"/><path d="M137.85,165.81s-5.25-8.33-16.84-15.75-32.6-8.88-40.57-8.88S58,144.63,58,144.63s.4,12.31,14.05,17S97.29,170,112.86,170,137.85,165.81,137.85,165.81Z" transform="translate(-0.46)" fill="rgb(255,255,255)"/><path d="M159,137.56s-21.19-10.14-36.94-29.88-21-34.71-21-34.71.9-3,9.42-3S131,78.88,139.85,93,157.77,129.41,159,137.56Z" transform="translate(-0.46)" fill="rgb(255,255,255)"/><path d="M142.2,175.05s.72-1.09,3.8-1.09,9.42,7.61,9.42,13-5.8,4.89-6.61,4.89S142.56,190.63,142.2,175.05Z" transform="translate(-0.46)" fill="rgb(255,255,255)"/><path d="M165.74,126.7s-1.63,1.63,0,7.42,3.81,13.58,11.23,11.77,5.43-9.41,2.9-12.86S174.79,124.4,165.74,126.7Z" transform="translate(-0.46)" fill="rgb(255,255,255)"/><path d="M217.07,185.9s-28.29.16-48.23-9.89-25.05-26.44-25.05-26.44,2.39-1.23,11.63-1.39S191.25,155.45,217.07,185.9Z" transform="translate(-0.46)" fill="rgb(255,255,255)"/><path d="M255.41,182.94s-7.27-24.4-20.87-34.76-29.84-12-33.39-12a61.47,61.47,0,0,0-9.9,1.42s7,18,19.94,26.86S242.42,182.94,255.41,182.94Z" transform="translate(-0.46)" fill="rgb(255,255,255)"/><path d="M151.39,201.07s14.14-5.27,39.86-5.27,39.32,11.37,39.32,15.83-6.7,9.14-26.8,9.14S160.12,210.62,151.39,201.07Z" transform="translate(-0.46)" fill="rgb(255,255,255)"/><path d="M240.51,226.32s-.57-1.3,4.89-1.3,11.33,7.18,11.33,14.5-8.46,6.17-12.2,3.45S239.08,228.76,240.51,226.32Z" transform="translate(-0.46)" fill="rgb(255,255,255)"/><path d="M270.23,170.05s1.43-1.29,5.16-1.29,11.34,9.12,11.34,14.18-2.58,6.34-8.25,6.34S268.5,175.36,270.23,170.05Z" transform="translate(-0.46)" fill="rgb(255,255,255)"/><path d="M312.43,220.77s-8.76,3.39-27.42,3.39-33.3-6.74-39.47-12.2S240,201.63,240,201.63s5.39-3.74,22.9-3.74S305.82,213.36,312.43,220.77Z" transform="translate(-0.46)" fill="rgb(255,255,255)"/><path d="M356.66,247.66S340.87,259.35,316,259.35s-44.29-13-44.29-13,9.36-14.76,33.62-13.44S356.66,247.66,356.66,247.66Z" transform="translate(-0.46)" fill="rgb(255,255,255)"/><path d="M365.43,230.85s-24.41-1.46-43.26-13.3-21.2-21.92-23.1-27.18-.58-11.35-.58-11.35,1.9-1.22,7-1.22,22.22,4.09,36.84,20.09A163.74,163.74,0,0,1,365.43,230.85Z" transform="translate(-0.46)" fill="rgb(255,255,255)"/><path d="M811,1s0-1-4-1-21,9-36,28-26,45-19,45,27.5-11.5,40.5-21.5,16-18,18-28S811,1,811,1Z" transform="translate(-0.46)" fill="rgb(255,255,255)"/><path d="M729,74s-2-22-2-30,2-16,9-21,9-5,9-5-3,19-3,24,0,13-1,15S729,74,729,74Z" transform="translate(-0.46)" fill="rgb(255,255,255)"/><path d="M749,104s9.9,2,14.07,2,27.35-2,33.68-10.87S806,73,806,73s-26.8-1-41.29,9.51S749,104,749,104Z" transform="translate(-0.46)" fill="rgb(255,255,255)"/><path d="M684.65,139s7.79-21.37,22.64-37.49S732.47,84.86,736,84.86a15.6,15.6,0,0,1,5.34.73s-1.45,21-19.74,34A160.69,160.69,0,0,1,684.65,139Z" transform="translate(-0.46)" fill="rgb(255,255,255)"/><path d="M752.75,118.37s-1.19-.91-7.75-.91-18,6.7-18,12.5,8.36,6,11.44,6S754.56,130,752.75,118.37Z" transform="translate(-0.46)" fill="rgb(255,255,255)"/><path d="M674.15,165.81s5.25-8.33,16.84-15.75,32.6-8.88,40.57-8.88S754,144.63,754,144.63s-.4,12.31-14,17S714.71,170,699.14,170,674.15,165.81,674.15,165.81Z" transform="translate(-0.46)" fill="rgb(255,255,255)"/><path d="M653,137.56s21.19-10.14,36.94-29.88,21-34.71,21-34.71-.9-3-9.42-3S681,78.88,672.15,93,654.23,129.41,653,137.56Z" transform="translate(-0.46)" fill="rgb(255,255,255)"/><path d="M669.8,175.05S669.08,174,666,174s-9.42,7.61-9.42,13,5.8,4.89,6.61,4.89S669.44,190.63,669.8,175.05Z" transform="translate(-0.46)" fill="rgb(255,255,255)"/><path d="M646.26,126.7s1.63,1.63,0,7.42S642.45,147.7,635,145.89s-5.43-9.41-2.9-12.86S637.21,124.4,646.26,126.7Z" transform="translate(-0.46)" fill="rgb(255,255,255)"/><path d="M594.93,185.9s28.29.16,48.23-9.89,25.05-26.44,25.05-26.44-2.39-1.23-11.63-1.39S620.75,155.45,594.93,185.9Z" transform="translate(-0.46)" fill="rgb(255,255,255)"/><path d="M556.59,182.94s7.27-24.4,20.87-34.76,29.84-12,33.39-12a61.47,61.47,0,0,1,9.9,1.42s-7,18-19.94,26.86S569.58,182.94,556.59,182.94Z" transform="translate(-0.46)" fill="rgb(255,255,255)"/><path d="M660.61,201.07s-14.14-5.27-39.86-5.27-39.32,11.37-39.32,15.83,6.7,9.14,26.8,9.14S651.88,210.62,660.61,201.07Z" transform="translate(-0.46)" fill="rgb(255,255,255)"/><path d="M571.49,226.32s.57-1.3-4.89-1.3-11.33,7.18-11.33,14.5,8.46,6.17,12.2,3.45S572.92,228.76,571.49,226.32Z" transform="translate(-0.46)" fill="rgb(255,255,255)"/><path d="M541.77,170.05s-1.43-1.29-5.16-1.29-11.34,9.12-11.34,14.18,2.58,6.34,8.25,6.34S543.5,175.36,541.77,170.05Z" transform="translate(-0.46)" fill="rgb(255,255,255)"/><path d="M499.57,220.77s8.76,3.39,27.42,3.39,33.3-6.74,39.47-12.2S572,201.63,572,201.63s-5.39-3.74-22.9-3.74S506.18,213.36,499.57,220.77Z" transform="translate(-0.46)" fill="rgb(255,255,255)"/><path d="M455.34,247.66s15.79,11.69,40.63,11.69,44.29-13,44.29-13-9.36-14.76-33.62-13.44S455.34,247.66,455.34,247.66Z" transform="translate(-0.46)" fill="rgb(255,255,255)"/><path d="M446.57,230.85s24.41-1.46,43.26-13.3,21.2-21.92,23.1-27.18.58-11.35.58-11.35-1.9-1.22-7-1.22-22.22,4.09-36.84,20.09A163.74,163.74,0,0,0,446.57,230.85Z" transform="translate(-0.46)" fill="rgb(255,255,255)"/><path d="M406,260.15s5.45,7.24,9.87,13S434.61,295,434.61,295a58.22,58.22,0,0,1,7.4-8.85c4.11-3.86,12-9.81,12-9.81l-31.21-22.68L437,247l-6.84-8L406,250l-24.19-11L375,247l14.24,6.68L358,276.32s7.88,5.95,12,9.81a58.22,58.22,0,0,1,7.4,8.85s14.31-16.16,18.74-21.88S406,260.15,406,260.15Z" transform="translate(-0.46)" fill="rgb(255,255,255)"/></g></g></g></g><g transform="rotate(0,30.63608455657959,30.64500331878662)" class="svg-group-clickable"><g><g><g transform="translate(17.61768,17.627206257) scale(0.06093046778453034,0.06092905329562277)"><path class="cls-1" d="M419.9,217.77H288c.08-1.39.13-2.79.13-4.2s0-2.69-.11-4H419.9c7.36,0,7.7-7.35,7.7-9.42s-.34-9.43-7.7-9.43H284.54a73.76,73.76,0,0,0-3.57-9h102.3c6.39,0,7.77-6.59,7.77-9.06,0-2.69-1.38-9.06-7.77-9.06H268.78q-2.29-2.52-4.8-4.81V44.33c0-6.39-6.38-7.77-9.06-7.77-2.47,0-9.06,1.38-9.06,7.77V146.56a73.76,73.76,0,0,0-9-3.57V7.7c0-7.36-7.36-7.7-9.43-7.7S218,.34,218,7.7V139.48c-1.34-.07-2.7-.12-4.06-.12s-2.78,0-4.16.13V7.7c0-7.36-7.36-7.7-9.43-7.7s-9.43.34-9.43,7.7V143a73.72,73.72,0,0,0-9,3.59V44.33c0-6.39-6.59-7.77-9.06-7.77-2.69,0-9.06,1.38-9.06,7.77V158.86c-1.64,1.5-3.22,3.08-4.72,4.72H44.62c-6.39,0-7.77,6.37-7.77,9.06,0,2.47,1.38,9.06,7.77,9.06H146.93a73.76,73.76,0,0,0-3.57,9H8c-7.36,0-7.7,7.36-7.7,9.43s.34,9.42,7.7,9.42H139.86c-.07,1.34-.11,2.68-.11,4s0,2.81.12,4.2H8c-7.36,0-7.7,7.35-7.7,9.42s.34,9.43,7.7,9.43H143.42a73.22,73.22,0,0,0,3.59,9H44.62c-6.39,0-7.77,6.59-7.77,9.06,0,2.69,1.38,9.06,7.77,9.06H159.28q2.17,2.37,4.55,4.54V383c0,6.39,6.37,7.77,9.06,7.77,2.47,0,9.06-1.38,9.06-7.77V280.53a75.31,75.31,0,0,0,9,3.58v135.5c0,7.36,7.36,7.7,9.43,7.7s9.43-.34,9.43-7.7v-132c1.38.07,2.76.12,4.16.12s2.72,0,4.06-.12v132c0,7.36,7.36,7.7,9.43,7.7s9.43-.34,9.43-7.7V284.14a73.76,73.76,0,0,0,9-3.57V383c0,6.39,6.59,7.77,9.06,7.77,2.68,0,9.06-1.38,9.06-7.77V268.36c1.61-1.47,3.16-3,4.63-4.63H383.27c6.39,0,7.77-6.37,7.77-9.06,0-2.47-1.38-9.06-7.77-9.06H280.89a73.22,73.22,0,0,0,3.59-9H419.9c7.36,0,7.7-7.36,7.7-9.43S427.26,217.77,419.9,217.77ZM267.81,245.61v.48a63.19,63.19,0,0,1-21.49,21.42h-.46v.27a62.88,62.88,0,0,1-63.91,0v-.22h-.38a63.25,63.25,0,0,1-21.48-21.42v-.48h-.28a62.91,62.91,0,0,1-.1-63.91h.38V181a63.27,63.27,0,0,1,21.18-21.24H182v-.39a62.85,62.85,0,0,1,63.91-.06v.45h.76A63.21,63.21,0,0,1,267.81,181v.66h.38a62.88,62.88,0,0,1-.11,63.91Z" transform="translate(-0.29 0)" fill="rgb(255,255,255)"/></g></g></g></g><g transform="rotate(0,30.6802978515625,30.690096855163574)" class="svg-group-clickable"><g><g><g transform="translate(26.38366,26.393183991) scale(0.06403335696224173,0.06442145468181819)"><path class="st0" d="M89.9,0.8c-6.5,1.1-14.3,2-23.2,2c-8.7,0-16.5-0.9-22.9-2c2.2,9.1,4,19.5,5.1,30.9c0.6,6.3,0.9,12.4,0.9,18  c-1.6,0-3.3,0.1-5,0.1c-16.1-0.1-30.9-2.7-44.1-6.3l0,0c1.1,6.5,2,14.3,2,23.2c0,8.7-0.9,16.5-2,22.9c9.1-2.2,19.5-4,30.9-5.1  c6.3-0.6,12.4-0.9,18-0.9c0,1.6,0.1,3.3,0.1,5c-0.1,16.1-2.4,30.9-6,44.1l0.6-0.1c6.5-1.1,14.3-2,23.2-2c8.7,0,16.5,0.9,22.9,2  c-2.2-9.1-4-19.5-5.1-30.9c-0.6-6.3-0.9-12.4-0.9-18c1.6,0,3.3-0.1,5-0.1c16.1,0.1,30.9,2.7,44.1,6.3l0,0c-1.1-6.5-2-14.3-2-23.2  c0-8.7,0.9-16.5,2-22.9c-9.1,2.2-19.5,4-30.9,5.1c-6.3,0.6-12.4,0.9-18,0.9c0-1.6-0.1-3.3-0.1-5c0.1-16.1,2.4-30.9,6-44.1L89.9,0.8z  " fill="rgb(255,255,255)"/></g></g></g></g><g transform="rotate(0,57.95585250854492,28.134997367858887)" class="svg-group-clickable"><g><path d="M38.83,27.579997422L77.0817,27.579997422L77.0817,28.689997422L38.83,28.689997422Z" fill="rgb(255,255,255)"/></g></g><g transform="rotate(0,62.08629608154297,29.795000076293945)" class="svg-group-clickable"><g><path d="M38.72222,29.240000298L85.45036999999999,29.240000298L85.45036999999999,30.350000297999998L38.72222,30.350000297999998Z" fill="rgb(255,255,255)"/></g></g><g transform="rotate(0,62.035139083862305,31.46999740600586)" class="svg-group-clickable"><g><path d="M38.58444,30.899997045L85.48584,30.899997045L85.48584,32.039997174L38.58444,32.039997174Z" fill="rgb(255,255,255)"/></g></g><g transform="rotate(0,58.416311264038086,33.14500045776367)" class="svg-group-clickable"><g><path d="M39.77644,32.590001376L77.05618,32.590001376L77.05618,33.700001375999996L39.77644,33.700001375999996Z" fill="rgb(255,255,255)"/></g></g><g transform="rotate(0,77.16498047113419,28.139996707439423)" class="svg-group-clickable"><g><ellipse cx="77.16498" cy="28.139998023" rx="0.56" ry="0.560000601" fill="rgb(255,255,255)"/></g></g><g transform="rotate(0,85.55021148920059,29.800000369548798)" class="svg-group-clickable"><g><ellipse cx="85.55021" cy="29.800000899" rx="0.56" ry="0.560000601" fill="rgb(255,255,255)"/></g></g><g transform="rotate(0,85.55021148920059,31.45999640226364)" class="svg-group-clickable"><g><ellipse cx="85.55021" cy="31.459997646" rx="0.56" ry="0.560000601" fill="rgb(255,255,255)"/></g></g><g transform="rotate(0,77.15020996332169,33.150000751018524)" class="svg-group-clickable"><g><ellipse cx="77.15021" cy="33.150001977" rx="0.56" ry="0.560000601" fill="rgb(255,255,255)"/></g></g><defs id="font-data"><style xmlns="http://www.w3.org/1999/xhtml">svg * { -webkit-tap-highlight-color: rgba(0, 0, 0, 0); }
.svg-group-clickable { cursor: pointer; }
svg &gt; g &gt; g { transform-origin: left top; transform-box: fill-box; }
.faded { opacity: 0.75; }
.fadein { opacity: 1; transition: opacity 0.3s; }
</style></defs></svg>